<svg width="55" height="55" viewBox="0 0 55 55" fill="none" xmlns="http://www.w3.org/2000/svg">
<circle cx="27.5" cy="27.5" r="27.5" transform="rotate(-90 27.5 27.5)" fill="#FF73BE"/>
<path d="M24.8604 39.6514C24.8604 40.7559 25.7558 41.6514 26.8604 41.6514C27.9649 41.6514 28.8604 40.7559 28.8604 39.6514L24.8604 39.6514ZM28.2746 12.6558C27.4935 11.8747 26.2272 11.8747 25.4461 12.6558L12.7182 25.3837C11.9372 26.1647 11.9372 27.4311 12.7182 28.2121C13.4993 28.9932 14.7656 28.9932 15.5466 28.2121L26.8604 16.8984L38.1741 28.2121C38.9551 28.9932 40.2214 28.9932 41.0025 28.2121C41.7835 27.4311 41.7835 26.1647 41.0025 25.3837L28.2746 12.6558ZM28.8604 39.6514L28.8604 14.07L24.8604 14.07L24.8604 39.6514L28.8604 39.6514Z" fill="black"/>
</svg>
