<svg width="55" height="55" viewBox="0 0 55 55" fill="none" xmlns="http://www.w3.org/2000/svg">
<ellipse cx="27.5" cy="27.5" rx="27.5" ry="27.5" transform="rotate(-90 27.5 27.5)" fill="#DBFF00"/>
<path d="M40.9303 23.0234C40.9303 19.888 39.883 16.8424 37.9546 14.3701C36.0263 11.8978 33.3274 10.1405 30.2863 9.37705C27.2453 8.61362 24.0363 8.88785 21.1689 10.1562C18.3015 11.4246 15.9399 13.6144 14.459 16.378C12.9781 19.1417 12.4628 22.3208 12.9948 25.4108C13.5268 28.5007 15.0757 31.3244 17.3956 33.4336C19.7155 35.5429 22.6734 36.8168 25.7999 37.0531C28.9264 37.2895 32.0423 36.4748 34.6529 34.7382" stroke="black" stroke-width="4" stroke-linecap="round"/>
<line x1="27.8284" y1="25" x2="36.9052" y2="34.0768" stroke="black" stroke-width="4" stroke-linecap="round"/>
<line x1="27.1646" y1="43.8171" x2="36.2413" y2="34.7403" stroke="black" stroke-width="4" stroke-linecap="round"/>
</svg>
